<mxfile host="app.diagrams.net" modified="2024-01-20T06:03:01.891Z" agent="Mozilla/5.0 (Macintosh; Intel Mac OS X 10_15_7) AppleWebKit/537.36 (KHTML, like Gecko) Chrome/120.0.0.0 Safari/537.36 Edg/120.0.0.0" etag="ZkDiQciiSe-rVRQVzNMg" version="22.1.21" type="github">
  <diagram name="Page-1" id="74e2e168-ea6b-b213-b513-2b3c1d86103e">
    <mxGraphModel dx="1722" dy="938" grid="1" gridSize="10" guides="1" tooltips="1" connect="1" arrows="1" fold="1" page="1" pageScale="1" pageWidth="1100" pageHeight="850" background="none" math="0" shadow="0">
      <root>
        <mxCell id="0" />
        <mxCell id="1" parent="0" />
        <mxCell id="77e6c97f196da883-1" value="&lt;font style=&quot;font-size: 15px;&quot;&gt;全局数据&lt;/font&gt;" style="swimlane;html=1;childLayout=stackLayout;startSize=20;rounded=0;shadow=0;labelBackgroundColor=none;strokeWidth=1;fontFamily=Verdana;fontSize=8;align=center;arcSize=15;" parent="1" vertex="1">
          <mxGeometry x="70" y="40" width="985" height="1060" as="geometry" />
        </mxCell>
        <mxCell id="77e6c97f196da883-2" value="用户信息" style="swimlane;html=1;startSize=20;arcSize=15;" parent="77e6c97f196da883-1" vertex="1">
          <mxGeometry y="20" width="160" height="1040" as="geometry" />
        </mxCell>
        <mxCell id="jvYIlQetyIfV3eT6a0-M-16" value="&lt;div style=&quot;color: rgb(59, 59, 59); background-color: rgb(255, 255, 255); font-family: Menlo, Monaco, &amp;quot;Courier New&amp;quot;, monospace; line-height: 18px;&quot;&gt;更新用户信息&lt;/div&gt;" style="rounded=1;whiteSpace=wrap;html=1;arcSize=15;" vertex="1" parent="77e6c97f196da883-2">
          <mxGeometry x="20" y="60" width="120" height="60" as="geometry" />
        </mxCell>
        <mxCell id="jvYIlQetyIfV3eT6a0-M-17" value="&lt;div style=&quot;color: rgb(59, 59, 59); background-color: rgb(255, 255, 255); font-family: Menlo, Monaco, &amp;quot;Courier New&amp;quot;, monospace; line-height: 18px;&quot;&gt;设置用户信息&lt;/div&gt;" style="rounded=1;whiteSpace=wrap;html=1;arcSize=15;" vertex="1" parent="77e6c97f196da883-2">
          <mxGeometry x="20" y="160" width="120" height="60" as="geometry" />
        </mxCell>
        <mxCell id="jvYIlQetyIfV3eT6a0-M-18" value="&lt;div style=&quot;color: rgb(59, 59, 59); background-color: rgb(255, 255, 255); font-family: Menlo, Monaco, &amp;quot;Courier New&amp;quot;, monospace; line-height: 18px;&quot;&gt;获取用户信息&lt;/div&gt;" style="rounded=1;whiteSpace=wrap;html=1;arcSize=15;" vertex="1" parent="77e6c97f196da883-2">
          <mxGeometry x="20" y="260" width="120" height="60" as="geometry" />
        </mxCell>
        <mxCell id="jvYIlQetyIfV3eT6a0-M-19" value="&lt;div style=&quot;color: rgb(59, 59, 59); background-color: rgb(255, 255, 255); font-family: Menlo, Monaco, &amp;quot;Courier New&amp;quot;, monospace; line-height: 18px;&quot;&gt;删除用户信息&lt;/div&gt;" style="rounded=1;whiteSpace=wrap;html=1;arcSize=15;" vertex="1" parent="77e6c97f196da883-2">
          <mxGeometry x="20" y="365" width="120" height="60" as="geometry" />
        </mxCell>
        <mxCell id="jvYIlQetyIfV3eT6a0-M-23" value="&lt;div style=&quot;color: rgb(59, 59, 59); background-color: rgb(255, 255, 255); font-family: Menlo, Monaco, &amp;quot;Courier New&amp;quot;, monospace; line-height: 18px;&quot;&gt;是否登陆&lt;/div&gt;" style="rounded=1;whiteSpace=wrap;html=1;arcSize=15;" vertex="1" parent="77e6c97f196da883-2">
          <mxGeometry x="20" y="850" width="120" height="60" as="geometry" />
        </mxCell>
        <mxCell id="77e6c97f196da883-3" value="机构信息" style="swimlane;html=1;startSize=20;arcSize=15;" parent="77e6c97f196da883-1" vertex="1">
          <mxGeometry x="160" y="20" width="160" height="1040" as="geometry" />
        </mxCell>
        <mxCell id="jvYIlQetyIfV3eT6a0-M-22" value="&lt;div style=&quot;color: rgb(59, 59, 59); background-color: rgb(255, 255, 255); font-family: Menlo, Monaco, &amp;quot;Courier New&amp;quot;, monospace; line-height: 18px;&quot;&gt;删除机构信息&lt;/div&gt;" style="rounded=1;whiteSpace=wrap;html=1;arcSize=15;" vertex="1" parent="77e6c97f196da883-3">
          <mxGeometry x="20" y="365" width="120" height="60" as="geometry" />
        </mxCell>
        <mxCell id="jvYIlQetyIfV3eT6a0-M-24" value="&lt;div style=&quot;color: rgb(59, 59, 59); background-color: rgb(255, 255, 255); font-family: Menlo, Monaco, &amp;quot;Courier New&amp;quot;, monospace; line-height: 18px;&quot;&gt;是否是连锁&lt;/div&gt;" style="rounded=1;whiteSpace=wrap;html=1;arcSize=15;" vertex="1" parent="77e6c97f196da883-3">
          <mxGeometry x="20" y="940" width="120" height="60" as="geometry" />
        </mxCell>
        <mxCell id="jvYIlQetyIfV3eT6a0-M-25" value="&lt;div style=&quot;color: rgb(59, 59, 59); background-color: rgb(255, 255, 255); font-family: Menlo, Monaco, &amp;quot;Courier New&amp;quot;, monospace; line-height: 18px;&quot;&gt;是否是门店&lt;/div&gt;" style="rounded=1;whiteSpace=wrap;html=1;arcSize=15;" vertex="1" parent="77e6c97f196da883-3">
          <mxGeometry x="20" y="850" width="120" height="60" as="geometry" />
        </mxCell>
        <mxCell id="jvYIlQetyIfV3eT6a0-M-67" value="&lt;font face=&quot;Menlo, Monaco, &amp;quot;Courier New&amp;quot;, monospace&quot;&gt;localStorage维护，当前的机构信息，用于跨页面更新&lt;/font&gt;" style="rounded=1;whiteSpace=wrap;html=1;" vertex="1" parent="77e6c97f196da883-3">
          <mxGeometry x="20" y="460" width="120" height="60" as="geometry" />
        </mxCell>
        <mxCell id="77e6c97f196da883-4" value="连锁信息" style="swimlane;html=1;startSize=20;arcSize=15;" parent="77e6c97f196da883-1" vertex="1">
          <mxGeometry x="320" y="20" width="160" height="1040" as="geometry" />
        </mxCell>
        <mxCell id="jvYIlQetyIfV3eT6a0-M-26" value="&lt;div style=&quot;color: rgb(59, 59, 59); background-color: rgb(255, 255, 255); font-family: Menlo, Monaco, &amp;quot;Courier New&amp;quot;, monospace; line-height: 18px;&quot;&gt;更新连锁信息&lt;/div&gt;" style="rounded=1;whiteSpace=wrap;html=1;arcSize=15;" vertex="1" parent="77e6c97f196da883-4">
          <mxGeometry x="20" y="60" width="120" height="60" as="geometry" />
        </mxCell>
        <mxCell id="jvYIlQetyIfV3eT6a0-M-27" value="&lt;div style=&quot;color: rgb(59, 59, 59); background-color: rgb(255, 255, 255); font-family: Menlo, Monaco, &amp;quot;Courier New&amp;quot;, monospace; line-height: 18px;&quot;&gt;设置连锁信息&lt;/div&gt;" style="rounded=1;whiteSpace=wrap;html=1;arcSize=15;" vertex="1" parent="77e6c97f196da883-4">
          <mxGeometry x="20" y="160" width="120" height="60" as="geometry" />
        </mxCell>
        <mxCell id="jvYIlQetyIfV3eT6a0-M-28" value="&lt;div style=&quot;color: rgb(59, 59, 59); background-color: rgb(255, 255, 255); font-family: Menlo, Monaco, &amp;quot;Courier New&amp;quot;, monospace; line-height: 18px;&quot;&gt;获取连锁信息&lt;/div&gt;" style="rounded=1;whiteSpace=wrap;html=1;arcSize=15;" vertex="1" parent="77e6c97f196da883-4">
          <mxGeometry x="20" y="260" width="120" height="60" as="geometry" />
        </mxCell>
        <mxCell id="jvYIlQetyIfV3eT6a0-M-49" value="&lt;div style=&quot;color: rgb(59, 59, 59); background-color: rgb(255, 255, 255); font-family: Menlo, Monaco, &amp;quot;Courier New&amp;quot;, monospace; line-height: 18px;&quot;&gt;从接口更新连锁配置信息&lt;/div&gt;" style="rounded=1;whiteSpace=wrap;html=1;arcSize=15;" vertex="1" parent="77e6c97f196da883-4">
          <mxGeometry x="20" y="670" width="120" height="60" as="geometry" />
        </mxCell>
        <mxCell id="77e6c97f196da883-5" value="品牌信息" style="swimlane;html=1;startSize=20;arcSize=15;" parent="77e6c97f196da883-1" vertex="1">
          <mxGeometry x="480" y="20" width="160" height="1040" as="geometry" />
        </mxCell>
        <mxCell id="jvYIlQetyIfV3eT6a0-M-29" value="&lt;div style=&quot;color: rgb(59, 59, 59); background-color: rgb(255, 255, 255); font-family: Menlo, Monaco, &amp;quot;Courier New&amp;quot;, monospace; line-height: 18px;&quot;&gt;设置品牌信息&lt;/div&gt;" style="rounded=1;whiteSpace=wrap;html=1;arcSize=15;" vertex="1" parent="77e6c97f196da883-5">
          <mxGeometry x="20" y="160" width="120" height="60" as="geometry" />
        </mxCell>
        <mxCell id="jvYIlQetyIfV3eT6a0-M-30" value="&lt;div style=&quot;color: rgb(59, 59, 59); background-color: rgb(255, 255, 255); font-family: Menlo, Monaco, &amp;quot;Courier New&amp;quot;, monospace; line-height: 18px;&quot;&gt;获取品牌信息&lt;/div&gt;" style="rounded=1;whiteSpace=wrap;html=1;arcSize=15;" vertex="1" parent="77e6c97f196da883-5">
          <mxGeometry x="20" y="260" width="120" height="60" as="geometry" />
        </mxCell>
        <mxCell id="jvYIlQetyIfV3eT6a0-M-44" value="从接口更新品牌列表信息" style="rounded=1;whiteSpace=wrap;html=1;arcSize=15;" vertex="1" parent="77e6c97f196da883-5">
          <mxGeometry x="20" y="760" width="120" height="60" as="geometry" />
        </mxCell>
        <mxCell id="jvYIlQetyIfV3eT6a0-M-45" value="获取品牌列表信息" style="rounded=1;whiteSpace=wrap;html=1;arcSize=15;" vertex="1" parent="77e6c97f196da883-5">
          <mxGeometry x="20" y="850" width="120" height="60" as="geometry" />
        </mxCell>
        <mxCell id="77e6c97f196da883-6" value="门店信息" style="swimlane;html=1;startSize=20;arcSize=15;" parent="77e6c97f196da883-1" vertex="1">
          <mxGeometry x="640" y="20" width="160" height="1040" as="geometry" />
        </mxCell>
        <mxCell id="jvYIlQetyIfV3eT6a0-M-32" value="&lt;div style=&quot;color: rgb(59, 59, 59); background-color: rgb(255, 255, 255); font-family: Menlo, Monaco, &amp;quot;Courier New&amp;quot;, monospace; line-height: 18px;&quot;&gt;更新门店信息&lt;/div&gt;" style="rounded=1;whiteSpace=wrap;html=1;arcSize=15;" vertex="1" parent="77e6c97f196da883-6">
          <mxGeometry x="20" y="60" width="120" height="60" as="geometry" />
        </mxCell>
        <mxCell id="jvYIlQetyIfV3eT6a0-M-33" value="&lt;div style=&quot;color: rgb(59, 59, 59); background-color: rgb(255, 255, 255); font-family: Menlo, Monaco, &amp;quot;Courier New&amp;quot;, monospace; line-height: 18px;&quot;&gt;设置门店信息&lt;/div&gt;" style="rounded=1;whiteSpace=wrap;html=1;arcSize=15;" vertex="1" parent="77e6c97f196da883-6">
          <mxGeometry x="20" y="160" width="120" height="60" as="geometry" />
        </mxCell>
        <mxCell id="jvYIlQetyIfV3eT6a0-M-34" value="&lt;div style=&quot;color: rgb(59, 59, 59); background-color: rgb(255, 255, 255); font-family: Menlo, Monaco, &amp;quot;Courier New&amp;quot;, monospace; line-height: 18px;&quot;&gt;获取门店信息&lt;/div&gt;" style="rounded=1;whiteSpace=wrap;html=1;arcSize=15;" vertex="1" parent="77e6c97f196da883-6">
          <mxGeometry x="20" y="260" width="120" height="60" as="geometry" />
        </mxCell>
        <mxCell id="jvYIlQetyIfV3eT6a0-M-20" value="&lt;div style=&quot;color: rgb(59, 59, 59); background-color: rgb(255, 255, 255); font-family: Menlo, Monaco, &amp;quot;Courier New&amp;quot;, monospace; line-height: 18px;&quot;&gt;从localStorage恢复store用户信息&lt;/div&gt;" style="rounded=1;whiteSpace=wrap;html=1;arcSize=15;" vertex="1" parent="77e6c97f196da883-6">
          <mxGeometry x="-620" y="560" width="120" height="60" as="geometry" />
        </mxCell>
        <mxCell id="jvYIlQetyIfV3eT6a0-M-21" value="&lt;div style=&quot;color: rgb(59, 59, 59); background-color: rgb(255, 255, 255); font-family: Menlo, Monaco, &amp;quot;Courier New&amp;quot;, monospace; line-height: 18px;&quot;&gt;从localStorage恢复store机构信息&lt;/div&gt;" style="rounded=1;whiteSpace=wrap;html=1;arcSize=15;" vertex="1" parent="77e6c97f196da883-6">
          <mxGeometry x="-460" y="560" width="120" height="60" as="geometry" />
        </mxCell>
        <mxCell id="jvYIlQetyIfV3eT6a0-M-36" value="&lt;div style=&quot;color: rgb(59, 59, 59); background-color: rgb(255, 255, 255); font-family: Menlo, Monaco, &amp;quot;Courier New&amp;quot;, monospace; line-height: 18px;&quot;&gt;从接口更新门店配置信息&lt;/div&gt;" style="rounded=1;whiteSpace=wrap;html=1;arcSize=15;" vertex="1" parent="77e6c97f196da883-6">
          <mxGeometry x="20" y="670" width="120" height="60" as="geometry" />
        </mxCell>
        <mxCell id="jvYIlQetyIfV3eT6a0-M-37" value="&lt;div style=&quot;color: rgb(59, 59, 59); background-color: rgb(255, 255, 255); font-family: Menlo, Monaco, &amp;quot;Courier New&amp;quot;, monospace; line-height: 18px;&quot;&gt;获取门店配置信息&lt;/div&gt;" style="rounded=1;whiteSpace=wrap;html=1;arcSize=15;" vertex="1" parent="77e6c97f196da883-6">
          <mxGeometry x="20" y="850" width="120" height="60" as="geometry" />
        </mxCell>
        <mxCell id="jvYIlQetyIfV3eT6a0-M-31" value="&lt;div style=&quot;color: rgb(59, 59, 59); background-color: rgb(255, 255, 255); font-family: Menlo, Monaco, &amp;quot;Courier New&amp;quot;, monospace; line-height: 18px;&quot;&gt;重置品牌信息&lt;/div&gt;" style="rounded=1;whiteSpace=wrap;html=1;arcSize=15;" vertex="1" parent="77e6c97f196da883-6">
          <mxGeometry x="-140" y="450" width="120" height="60" as="geometry" />
        </mxCell>
        <mxCell id="jvYIlQetyIfV3eT6a0-M-35" value="&lt;div style=&quot;color: rgb(59, 59, 59); background-color: rgb(255, 255, 255); font-family: Menlo, Monaco, &amp;quot;Courier New&amp;quot;, monospace; line-height: 18px;&quot;&gt;重置门店信息&lt;/div&gt;" style="rounded=1;whiteSpace=wrap;html=1;arcSize=15;" vertex="1" parent="77e6c97f196da883-6">
          <mxGeometry x="20" y="450" width="120" height="60" as="geometry" />
        </mxCell>
        <mxCell id="77e6c97f196da883-7" value="路由信息" style="swimlane;html=1;startSize=20;arcSize=15;" parent="77e6c97f196da883-1" vertex="1">
          <mxGeometry x="800" y="20" width="185" height="1040" as="geometry" />
        </mxCell>
        <mxCell id="jvYIlQetyIfV3eT6a0-M-38" value="&lt;div style=&quot;color: rgb(59, 59, 59); background-color: rgb(255, 255, 255); font-family: Menlo, Monaco, &amp;quot;Courier New&amp;quot;, monospace; line-height: 18px;&quot;&gt;更新初始化路由信息&lt;/div&gt;" style="rounded=1;whiteSpace=wrap;html=1;arcSize=15;" vertex="1" parent="77e6c97f196da883-7">
          <mxGeometry x="30" y="670" width="120" height="60" as="geometry" />
        </mxCell>
        <mxCell id="jvYIlQetyIfV3eT6a0-M-39" value="&lt;div style=&quot;color: rgb(59, 59, 59); background-color: rgb(255, 255, 255); font-family: Menlo, Monaco, &amp;quot;Courier New&amp;quot;, monospace; line-height: 18px;&quot;&gt;路由拦截&lt;/div&gt;" style="rounded=1;whiteSpace=wrap;html=1;arcSize=15;" vertex="1" parent="77e6c97f196da883-7">
          <mxGeometry x="30" y="850" width="120" height="60" as="geometry" />
        </mxCell>
        <mxCell id="jvYIlQetyIfV3eT6a0-M-43" value="设置路由信息" style="rounded=1;whiteSpace=wrap;html=1;arcSize=15;" vertex="1" parent="77e6c97f196da883-7">
          <mxGeometry x="30" y="760" width="120" height="60" as="geometry" />
        </mxCell>
        <mxCell id="jvYIlQetyIfV3eT6a0-M-52" value="&lt;font color=&quot;#ff6666&quot;&gt;需要维护在内存以及localStrage&lt;br&gt;其余的维护在内存里面即可&lt;br&gt;&lt;/font&gt;" style="text;html=1;align=center;verticalAlign=middle;resizable=0;points=[];autosize=1;strokeColor=none;fillColor=none;" vertex="1" parent="77e6c97f196da883-7">
          <mxGeometry x="-5" y="525" width="190" height="40" as="geometry" />
        </mxCell>
        <mxCell id="jvYIlQetyIfV3eT6a0-M-51" value="" style="endArrow=none;dashed=1;html=1;dashPattern=1 3;strokeWidth=2;rounded=0;strokeColor=#FF6666;" edge="1" parent="1">
          <mxGeometry width="50" height="50" relative="1" as="geometry">
            <mxPoint x="1070" y="90" as="sourcePoint" />
            <mxPoint x="1070" y="90" as="targetPoint" />
            <Array as="points">
              <mxPoint x="1070" y="690" />
              <mxPoint x="50" y="690" />
              <mxPoint x="50" y="90" />
            </Array>
          </mxGeometry>
        </mxCell>
      </root>
    </mxGraphModel>
  </diagram>
</mxfile>
